<?xml version="1.0" encoding="utf-8"?>
<!-- Generator: Adobe Illustrator 16.0.0, SVG Export Plug-In . SVG Version: 6.00 Build 0)  -->
<!DOCTYPE svg PUBLIC "-//W3C//DTD SVG 1.1//EN" "http://www.w3.org/Graphics/SVG/1.1/DTD/svg11.dtd">
<svg version="1.1" id="Layer_1" xmlns="http://www.w3.org/2000/svg" xmlns:xlink="http://www.w3.org/1999/xlink" x="0px" y="0px"
	 width="207.344px" height="79.974px" viewBox="0 0 207.344 79.974" enable-background="new 0 0 207.344 79.974"
	 xml:space="preserve">
<path opacity="0.15" fill="#C8C0CE" d="M207.04,33.344c-0.178-1.137-1.242-1.915-2.381-1.737c-1.137,0.178-1.915,1.244-1.737,2.381
	c0.299,1.941,0.68,8.023-1.419,10.471c-0.455,0.53-1.003,0.848-1.692,0.973l0.191-11.584c0.028-1.684-1.329-3.063-3.013-3.063
	c-1.693,0-3.054,1.395-3.012,3.088l0.545,21.983c-0.723-0.117-1.294-0.435-1.764-0.982c-2.099-2.447-1.718-8.529-1.419-10.471
	c0.178-1.138-0.6-2.204-1.737-2.381c-1.139-0.178-2.203,0.6-2.381,1.737c-0.15,0.957-1.354,9.473,2.368,13.822
	c1.28,1.497,3.013,2.344,5.037,2.476l0.237,9.568h4.548l0.33-19.991c1.978-0.154,3.673-0.998,4.931-2.468
	C208.395,42.817,207.19,34.301,207.04,33.344z"/>
<path opacity="0.15" fill="#C8C0CE" d="M12.828,51.979c-0.113-0.725-0.792-1.221-1.518-1.107c-0.725,0.113-1.221,0.793-1.107,1.518
	c0.191,1.238,0.434,5.115-0.904,6.675c-0.29,0.338-0.639,0.541-1.079,0.621l0.122-7.385c0.018-1.073-0.848-1.952-1.921-1.952
	c-1.079,0-1.947,0.889-1.92,1.968l0.347,14.014c-0.46-0.074-0.825-0.277-1.124-0.626c-1.338-1.56-1.095-5.437-0.904-6.674
	c0.113-0.726-0.383-1.405-1.107-1.519c-0.727-0.113-1.405,0.383-1.518,1.107c-0.096,0.61-0.864,6.039,1.509,8.812
	c0.816,0.954,1.921,1.495,3.211,1.579l0.151,6.1h2.899l0.21-12.744c1.261-0.099,2.342-0.637,3.144-1.574
	C13.691,58.019,12.923,52.589,12.828,51.979z"/>
<g opacity="0.15">
	<linearGradient id="SVGID_1_" gradientUnits="userSpaceOnUse" x1="67.7891" y1="41.6621" x2="76.4172" y2="48.4651">
		<stop  offset="0" style="stop-color:#413648"/>
		<stop  offset="0.4422" style="stop-color:#4C3F55"/>
		<stop  offset="1" style="stop-color:#564860"/>
	</linearGradient>
	<path fill="url(#SVGID_1_)" d="M84.673,54.607h-4.108c-3.418,0-6.2-2.781-6.2-6.2c0-0.878-0.715-1.594-1.594-1.594h-4.758
		c-1.272,0-2.303-1.031-2.303-2.303s1.031-2.303,2.303-2.303h4.758c3.418,0,6.2,2.781,6.2,6.2c0,0.879,0.715,1.594,1.594,1.594
		h4.108c1.272,0,2.303,1.031,2.303,2.303S85.945,54.607,84.673,54.607z"/>
	<linearGradient id="SVGID_2_" gradientUnits="userSpaceOnUse" x1="74.7808" y1="10.2476" x2="122.2327" y2="75.6184">
		<stop  offset="0" style="stop-color:#413648"/>
		<stop  offset="0.4422" style="stop-color:#4C3F55"/>
		<stop  offset="1" style="stop-color:#564860"/>
	</linearGradient>
	<path fill="url(#SVGID_2_)" d="M98.212,0L98.212,0c-12.244-0.003-22.602,10.279-22.9,22.476
		c-0.283,13.065-0.095,25.965,2.068,38.882c1.033,5.135,2.342,10.094,4.005,15.064c0.699,1.963,2.956,3.552,4.938,3.552
		c0.144,0,0.216,0,0.36,0c1.982,0,2.86-1.556,2.082-3.487l0,0c-0.531-1.318,0.143-2.376,1.45-2.357l0,0
		c1.308,0.018,2.778,1.096,3.345,2.399l0,0c0.83,1.91,3.218,3.445,5.2,3.445c0.144,0,0.216,0,0.36,0c1.982,0,2.729-1.503,1.819-3.38
		l0,0c-0.621-1.282-0.009-2.315,1.299-2.296l0,0c1.308,0.018,2.84,1.071,3.496,2.338l0,0c0.961,1.857,3.481,3.339,5.463,3.339
		c0.145,0,0.216,0,0.36,0c1.982,0,2.597-1.449,1.556-3.274l0,0c-0.71-1.245-0.16-2.253,1.147-2.235l0,0
		c1.308,0.018,2.902,1.046,3.648,2.277l0,0c1.093,1.804,3.743,3.232,5.725,3.232c0.072,0,0.108,0,0.18,0
		c2.082,0,2.589-1.466,1.368-3.329c-2.72-4.514-4.654-8.951-6.13-13.998c-2.921-13.228-1.698-26.306-0.198-39.64
		C120.327,10.493,110.792-0.004,98.212,0z"/>
	<g>
		<path fill="#786D80" d="M79.637,27.031c2.158,1.523,5.677-1.179,3.966-7.194c-0.085-0.3-0.519-0.378-0.656-0.05
			C81.384,23.533,77.063,25.215,79.637,27.031z"/>
		<path fill="#786D80" d="M89.388,18.498c-2.582,1.09,2.046,15.536,9.23,10.98c4.379-2.777,0.429-5.5-4.016-7.15
			C91.907,21.328,90.94,17.843,89.388,18.498z"/>
		<ellipse fill="#786D80" cx="88.158" cy="34.261" rx="3.405" ry="4.961"/>
	</g>
	<path fill="#413648" d="M101.333,54.607h-4.107c-3.419,0-6.2-2.781-6.2-6.2c0-0.878-0.715-1.594-1.594-1.594h-4.758
		c-1.272,0-2.303-1.031-2.303-2.303s1.031-2.303,2.303-2.303h4.758c3.419,0,6.2,2.781,6.2,6.2c0,0.879,0.715,1.594,1.594,1.594
		h4.107c1.272,0,2.303,1.031,2.303,2.303S102.604,54.607,101.333,54.607z"/>
</g>
</svg>
